# xmcd
#
# Track frame offsets:
# 150
# 16242
# 26939
# 41639
# 53270
# 63966
# 81639
# 95043
# 108106
# 122132
# 135375
#
# Disc length: 2007 seconds
#
#
# Revision: 0
# Processed by: cddbd v1.5.2PL0 Copyright (c) Steve Scherf et al.
# Submitted via: FreeRIP 2.951 
#
DISCID=8c07d50b
DTITLE=Various Artist - R&B: Your Cheating Heart
DYEAR=2005
DGENRE=R&B
TTITLE0=Your Cheatin Heart
TTITLE1=The House That Jack Built
TTITLE2=What Bcomes of a Broken Heart
TTITLE3=Smoke Gets in Your Eyes
TTITLE4=Charlie Brown
TTITLE5=So Sad The Song
TTITLE6=Soul Man
TTITLE7=On Broadway
TTITLE8=I've Passed This Way Before
TTITLE9=Walk on By
TTITLE10=I'm Stone in Love With You
EXTD=
EXTT0=Ray Charles
EXTT1=Aretha Franklin
EXTT2=Jimmy Ruffin
EXTT3=The Platters
EXTT4=The Coasters
EXTT5=Gladys Knight and The Pips
EXTT6=Sam and Dave
EXTT7=The Drifters
EXTT8=Jimmy Ruffin
EXTT9=Dionne Warwick
EXTT10=Stylistics
PLAYORDER=
